<?xml version="1.0" encoding="utf-8"?>
<!-- Generator: Adobe Illustrator 24.3.0, SVG Export Plug-In . SVG Version: 6.00 Build 0)  -->
<svg version="1.1" id="Layer_1" xmlns="http://www.w3.org/2000/svg" xmlns:xlink="http://www.w3.org/1999/xlink" 
	width="100%"  viewBox="0 200 1920 700" style="enable-background:new 0 0 1920 700;" >
<g>
	<path d="M468.96,799.68c-1.07-0.25-2.15-0.51-3.22-0.75c-9.81-2.23-17.7-7.62-24.21-15.08c-5.59-6.4-10.08-13.61-14.64-20.76
		c-8.72-13.7-16.33-28.04-24.09-42.29c-12.99-23.87-26-47.73-38.92-71.64c-10.45-19.34-20.84-38.71-31.13-58.13
		c-6.96-13.13-13.61-26.43-20.57-39.56c-5.31-10.02-12.03-19.02-19.96-27.17c-3.07-3.16-7.92-3-10.75-1.18
		c-3.06,1.97-5.33,4.65-6.74,7.93c-5.5,12.79-11.89,25.14-18.32,37.47c-8.24,15.83-15.41,32.12-21.81,48.77
		c-4.13,10.74-8.47,21.4-12.54,32.15c-8.07,21.28-15.91,42.65-22.99,64.29c-1.46,4.47-3.66,8.5-6.67,12.09
		c-2.05,2.44-4.62,4.16-7.64,5.19c-3.47,1.19-6.94,2.4-10.4,3.62c-3.34,1.18-6.73,1.92-10.32,1.8c-4.72-0.16-9.44-0.04-14.16-0.2
		c-1.73-0.06-3.52-0.35-5.16-0.88c-4.09-1.33-6.29-4.53-6.42-8.86c-0.19-6.09,1.13-11.93,3.13-17.59c2.59-7.3,5.4-14.52,8.27-21.72
		c6.07-15.21,12.05-30.46,18.44-45.53c5.15-12.13,10.85-24.03,16.31-36.03c6.95-15.27,14.06-30.47,20.79-45.84
		c7.34-16.76,14.27-33.69,21.45-50.52c6.34-14.84,12.82-29.63,19.15-44.47c8.4-19.69,16.74-39.41,25.08-59.13
		c5.42-12.8,10.8-25.62,16.2-38.43c1.61-3.83,3.22-7.66,4.82-11.49c0.17-0.42,0.28-0.87,0.08-1.54c-0.62,0.57-1.22,1.15-1.86,1.7
		c-3.63,3.13-7.17,6.38-10.94,9.33c-3.99,3.12-8.52,5.36-13.36,6.89c-1.42,0.45-2.98,0.73-4.46,0.66c-2.45-0.13-3.42-1.82-2.34-4.01
		c0.62-1.26,1.55-2.44,2.56-3.42c7.69-7.38,14.73-15.34,21.49-23.57c9.25-11.26,17.71-23.1,25.46-35.43
		c2.85-4.53,5.36-9.27,8.21-13.8c1.69-2.69,3.61-5.27,5.66-7.7c2.2-2.61,5.14-3.9,8.62-4.12c6.01-0.38,11.55,1.28,16.93,3.67
		c3.59,1.6,6.82,3.81,9.85,6.35c5.72,4.8,8.23,11.07,8.47,18.34c0.31,9.29-1.57,18.26-4.17,27.11c-2.94,9.99-6.99,19.55-11.28,29.01
		c-8.46,18.62-16.82,37.29-25.31,55.9c-5.9,12.94-11.94,25.82-17.92,38.72c-0.3,0.65-0.64,1.29-0.87,1.97
		c-0.61,1.79,0.01,2.89,1.93,2.85c2.22-0.04,4.46-0.33,6.64-0.74c13.99-2.67,27.63-6.64,41.13-11.12
		c25.8-8.56,50.98-18.72,75.95-29.42c24.83-10.64,49.26-22.15,73.63-33.81c15.63-7.48,31.6-14.27,47.39-21.42
		c4.73-2.14,9.41-4.4,14.06-6.72c0.67-0.34,1.19-1.22,1.52-1.97c3.06-6.86,5.89-13.82,9.11-20.6c3.96-8.33,8.65-16.24,15.16-22.9
		c5.41-5.54,11.51-10.13,18.51-13.5c7.06-3.4,14.35-3.72,21.67-1.28c7.82,2.61,13.15,8.17,16.28,15.63
		c4.39,10.47,2.54,20.21-4.41,29.01c-4.75,6-10.62,10.85-16.67,15.47c-7.7,5.88-15.79,11.18-24.21,15.97
		c-1.79,1.02-2.83,2.29-3.47,4.24c-7.14,21.53-14.28,43.05-21.55,64.53c-4.81,14.22-9.81,28.38-14.73,42.57
		c-2.46,7.09-5.13,14.12-7.33,21.3c-2.59,8.47-4.86,17.04-7.11,25.6c-3.69,14.07-8.49,27.8-12.54,41.75
		c-5.79,19.93-11.51,39.89-17.19,59.85c-0.4,1.41-0.34,2.99-0.29,4.48c0.04,1.37,1.05,2.1,2.28,2.47c2.34,0.69,4.71-0.07,6.19-2.06
		c0.67-0.89,1.27-1.85,1.76-2.85c5.08-10.35,11.29-20.06,16.96-30.07c10.74-19,21.41-38.03,32.1-57.05
		c6.18-11.01,12.33-22.05,18.53-33.05c0.7-1.24,1.58-2.41,2.53-3.48c7.99-9.01,17.53-15.59,29.37-18.46
		c7.28-1.76,14.58-1.78,21.83,0.2c8.51,2.32,14.49,7.6,17.85,15.73c2.82,6.85,3.44,14.03,3.07,21.39
		c-0.59,11.77-3.9,22.96-7.12,34.16c-5.56,19.35-11.79,38.48-18.59,57.43c-4.56,12.7-9.41,25.3-14.11,37.95
		c-0.72,1.95-1.43,3.9-1.29,6.05c0.15,2.35,1.28,3.69,3.61,4.06c2.78,0.43,5.4-0.29,7.95-1.29c4.49-1.77,8.56-4.29,12.51-7.03
		c8.56-5.95,16.33-12.86,23.92-19.97c11.56-10.83,23.01-21.81,33.37-33.79c12.34-14.28,24.3-28.89,36.28-43.46
		c13.61-16.55,27.08-33.23,40.61-49.85c0.56-0.68,1.11-1.37,1.65-2.06c1.11-1.4,1.41-2.98,1.14-4.74c-0.39-2.51-1.59-4.67-2.81-6.83
		c-1.61-2.85-3.28-5.67-4.86-8.54c-0.5-0.9-0.79-1.92-1.15-2.89c-1.68-4.56-0.63-8.63,2.28-12.34c3.37-4.29,7.89-6.75,13.15-7.72
		c2.72-0.5,5.56-0.57,8.34-0.53c2.77,0.04,5.3,1.13,7.56,2.72c6.92,4.87,9.8,14.69,7.34,22.01c-1.17,3.49-3.43,6.65-5.39,9.84
		c-1.25,2.03-2.85,3.84-4.34,5.81c0.65,1.53,1.33,3.05,1.94,4.6c2.03,5.1,2.9,10.45,3.14,15.9c0.49,11.23-1.72,22.1-4.46,32.88
		c-5.14,20.21-12.91,39.45-21.96,58.19c-2.05,4.24-4.24,8.42-6.41,12.6c-0.77,1.48-1.04,3.02-0.7,4.64
		c0.32,1.53,1.21,2.05,2.63,1.41c1.08-0.49,2.15-1.12,3.01-1.92c1.87-1.74,3.71-3.54,5.36-5.48c17.56-20.77,34.85-41.76,50.61-63.94
		c9.22-12.96,18.14-26.14,27.04-39.33c5.28-7.82,12.48-11.76,21.85-11.44c7.21,0.25,11.98,3.91,13.95,10.96
		c1.33,4.75,0.88,9.49,0.24,14.27c-1,7.52-1.89,15.05-2.84,22.57c-1.32,10.38-2.65,20.76-3.97,31.13
		c-0.92,7.29-1.81,14.58-2.74,21.86c-0.73,5.7-1.47,11.4-2.27,17.08c-0.18,1.31,0.19,2.36,0.98,3.32c1.09,1.32,1.9,1.54,3.31,0.59
		c1.12-0.75,2.2-1.63,3.06-2.66c2.66-3.19,5.27-6.44,7.78-9.75c8.09-10.66,14.72-22.27,21.6-33.7
		c8.33-13.83,16.42-27.81,23.75-42.21c3.31-6.51,6-13.23,7.32-20.46c0.79-4.36,0.9-8.72,0.58-13.29c-0.7-0.31-1.41-0.64-2.13-0.94
		c-4.22-1.74-8.35-3.65-12.13-6.24c-6.39-4.37-10-13.98-8.04-21.42c0.74-2.8,2.19-5.2,4.5-6.91c6.14-4.53,13-6.38,20.58-4.91
		c7.77,1.5,12.23,6.47,14.21,13.9c1.01,3.78,1.82,7.61,2.88,11.38c0.54,1.91,1.29,3.78,2.18,5.56c1.07,2.16,2.86,3.54,5.24,4.25
		c6.01,1.79,12.13,2.93,18.38,3.1c5.43,0.15,10.87,0.18,16.29-0.04c9.77-0.4,19.35-2.21,28.85-4.44c8.56-2.02,16.94-4.65,25.21-7.61
		c5.71-2.04,11.33-4.41,17.14-6.11c11.73-3.45,23.76-4.95,36-4.27c8.71,0.48,17.06,2.42,24.82,6.56
		c11.03,5.89,17.84,15.03,20.73,27.12c1.81,7.54,1.84,15.17,1.16,22.87c-1.02,11.56-4.77,22.12-10.98,31.84
		c-5.48,8.59-12.4,15.91-20.52,21.99c-9.75,7.3-19.06,15.08-27.92,23.41c-8.52,8.01-16.76,16.27-23.42,25.95
		c-2.72,3.96-5.2,8.07-6.7,12.67c-0.42,1.27-0.77,2.63-0.82,3.96c-0.09,2.39,1.34,3.69,3.66,3.09c3.47-0.9,6.94-1.92,10.23-3.3
		c8.27-3.47,15.63-8.47,22.07-14.66c14.06-13.52,28.05-27.12,41.88-40.88c16.78-16.7,33.43-33.53,49.98-50.46
		c11.63-11.9,22.99-24.06,32.55-37.76c1.28-1.83,2.61-3.66,3.64-5.63c5.55-10.57,14.33-17.17,25.48-20.88
		c6.71-2.23,13.63-3.45,20.7-3.48c1.85-0.01,3.78,0.57,5.53,1.26c2.64,1.03,3.88,3.12,3.77,6.05c-0.13,3.56-1.62,6.65-3.2,9.7
		c-4.84,9.38-9.9,18.64-14.52,28.12c-5.99,12.28-11.55,24.77-17.46,37.08c-8.11,16.87-14.81,34.32-21.73,51.69
		c-0.68,1.71-1.41,3.4-2.05,5.12c-0.36,0.97-0.69,1.97-0.88,2.98c-0.47,2.54,0.86,4.13,3.46,4.36c3.36,0.29,6.18-0.95,8.41-3.3
		c3.13-3.3,6.13-6.74,9.1-10.19c18.61-21.58,35.29-44.67,52.44-67.39c9.69-12.85,18.1-26.55,27.02-39.92
		c2.94-4.4,6.67-7.96,10.72-11.22c7.01-5.66,14.8-9.77,23.77-11.31c5.84-1,11.63-0.78,17.29,1.08c7.43,2.44,11.48,7.66,12.73,15.31
		c0.92,5.63,0.24,11.16-0.75,16.67c-1.87,10.35-5.44,20.19-9.21,29.95c-9.53,24.6-20.09,48.76-31.43,72.57
		c-3.64,7.65-7.54,15.17-11.29,22.76c-0.49,0.99-0.95,2.05-1.16,3.13c-0.5,2.57,0.59,4.12,3.11,4.81c2.38,0.65,4.7,0.33,6.72-0.9
		c2.58-1.57,5.14-3.27,7.37-5.29c9.37-8.47,18.54-17.17,27.92-25.62c15.45-13.92,31-27.72,46.51-41.57
		c8.71-7.78,17.68-15.29,26.04-23.42c7.9-7.68,15.18-16.01,22.7-24.1c0.75-0.8,1.29-1.83,1.79-2.82
		c8.66-17.3,17.29-34.6,25.93-51.91c1.36-2.72,2.73-5.43,4.07-8.15c0.34-0.69,0.61-1.43,1.02-2.39c-3.45-0.16-6.62-0.32-9.8-0.45
		c-11.43-0.46-22.85-0.91-34.28-1.38c-3.12-0.13-6.23-0.42-9.34-0.44c-6.28-0.05-11.86-2.28-17.25-5.21
		c-4.24-2.3-8.14-5.08-11.54-8.51c-0.89-0.9-1.75-1.89-2.43-2.95c-1.46-2.28-0.91-3.78,1.61-4.58c0.98-0.31,2.03-0.55,3.05-0.54
		c4.79,0.06,9.58,0.19,14.37,0.36c3.35,0.12,6.7,0.36,10.06,0.52c7.27,0.34,14.54,0.64,21.8,0.98c7.51,0.35,15.01,0.74,22.52,1.1
		c6.31,0.3,12.62,0.59,18.93,0.88c0.71,0.03,1.43,0,2.34,0c0.41-0.77,0.88-1.59,1.3-2.43c10.3-20.76,20.58-41.53,30.9-62.28
		c5.77-11.59,11.58-23.16,17.43-34.7c1.26-2.49,2.76-4.87,4.2-7.26c2.02-3.37,3.84-6.83,4.89-10.64c0.45-1.64,1.58-2.73,2.92-3.67
		c4.3-3.02,9.11-4.97,14.02-6.67c5.44-1.89,11-3.4,16.73-4.08c3.32-0.39,6.67-0.82,9.98,0.26c4.24,1.38,5.98,4.19,4.79,8.45
		c-0.7,2.52-1.65,5.03-2.92,7.31c-8.96,15.97-17.15,32.33-25.06,48.84c-7.84,16.36-15.8,32.66-23.7,48.99
		c-2.64,5.47-5.26,10.95-7.88,16.43c-0.17,0.35-0.3,0.71-0.54,1.28c0.48,0.11,0.82,0.25,1.17,0.26c12.79,0.28,25.59,0.69,38.38,0.75
		c5.42,0.03,10.84-0.64,16.26-1.07c6.08-0.48,12.17-0.76,18.13,0.76c2.52,0.64,5.08,1.58,7.27,2.95c5.5,3.45,5.89,10.18,1.11,14.65
		c-1.8,1.68-3.93,2.81-6.31,3.29c-2.57,0.52-5.2,0.99-7.81,1.04c-4.87,0.09-9.75-0.2-14.63-0.21c-4.39,0-8.79,0.3-13.18,0.23
		c-15.43-0.22-30.87-0.54-46.3-0.81c-1.51-0.03-3.02,0-4.73,0c-1.69,3.48-3.4,6.98-5.1,10.5c-12.38,25.61-24.77,51.22-37.12,76.85
		c-4.89,10.15-9.96,20.22-14.46,30.54c-6.87,15.74-13.31,31.67-19.94,47.52c-2.13,5.09-4.43,10.11-6.33,15.28
		c-1.34,3.65-2.25,7.48-3.12,11.28c-0.37,1.6-0.3,3.35-0.19,5.01c0.19,2.81,1.6,4.34,4.34,4.99c3.55,0.85,7.13,0.83,10.72,0.32
		c10.33-1.46,19.54-5.84,28.4-11.05c13.02-7.67,24.55-17.29,35.69-27.44c2.87-2.61,4.91-5.39,5.79-9.26
		c1.86-8.17,5.88-15.51,9.53-22.97c6.18-12.64,12.5-25.22,19.83-37.23c15.3-25.1,35.38-45.43,60.72-60.51
		c12.57-7.48,25.94-12.67,40.31-15.36c8.93-1.67,17.94-2.21,26.98-1.58c9.46,0.66,18.41,3.24,26.43,8.46
		c9.87,6.42,15.79,15.63,17.72,27.11c4.34,25.91-3.02,48.23-21.67,66.69c-4.36,4.31-9.32,8.02-14.07,11.94
		c-3.82,3.15-7.84,6.07-11.58,9.31c-11.37,9.84-22.59,19.86-32.98,30.76c-5.13,5.39-10.16,10.88-14.14,17.21
		c-2.25,3.59-4.37,7.27-5.39,11.44c-0.15,0.62-0.33,1.24-0.38,1.87c-0.19,2.7,0.9,3.83,3.64,3.71c5.62-0.24,10.8-2.06,15.77-4.56
		c7.05-3.54,12.85-8.62,17.89-14.62c4.98-5.92,10.71-10.99,17.27-15.1c4.02-2.51,8.22-4.59,12.97-5.39
		c5.14-0.86,9.65,0.72,13.82,3.49c2.09,1.39,2.54,3.79,1.19,6.18c-1.09,1.93-2.4,3.79-3.88,5.44c-8.03,8.96-16.95,16.97-26.34,24.46
		c-7.89,6.3-16.15,12.05-25.2,16.59c-6.31,3.17-12.81,5.78-19.89,6.67c-10.27,1.3-19.55-0.75-27.26-8.07
		c-0.23-0.21-0.49-0.39-0.51-0.4c-5.49,2.1-10.75,4.2-16.07,6.12c-4.77,1.73-9.76,2.45-14.8,2.62c-4.71,0.16-9.44,0.31-14.13-0.04
		c-9.56-0.71-18.49-3.44-26.29-9.29c-7.74-5.81-12.3-13.48-13.84-23.01c-0.77-4.76-0.94-9.54-0.76-14.35c0.02-0.45,0-0.9,0-1.74
		c-0.99,0.82-1.71,1.39-2.41,2c-11.05,9.64-22.73,18.42-35.54,25.63c-11.49,6.47-23.55,11.49-36.57,13.89
		c-7.16,1.32-14.42,2-21.71,1.25c-5.99-0.62-11.53-2.56-16.24-6.48c-5.45-4.53-8.12-10.55-9.18-17.41
		c-1.03-6.64-0.46-13.23,0.72-19.79c2.4-13.32,7.28-25.8,12.87-38.03c3.35-7.34,7.05-14.53,10.25-21.93
		c3.87-8.94,7.38-18.04,11.04-27.07c0.14-0.34,0.14-0.74,0.17-0.9c-4.39,4.6-8.81,9.31-13.3,13.94
		c-19.2,19.81-38.39,39.65-57.66,59.39c-10.17,10.42-20.37,20.8-30.83,30.93c-7.29,7.06-14.91,13.8-22.6,20.42
		c-9.04,7.79-19.81,10.38-31.52,9.46c-2.29-0.18-4.62-0.58-6.8-1.28c-6.27-2-9.66-6.46-10.6-12.92c-0.72-4.93,0.12-9.71,1.28-14.47
		c1.72-7.05,4.8-13.53,8.22-19.87c8.88-16.46,17.65-32.98,26.65-49.37c4.08-7.42,8.69-14.55,12.88-21.91
		c5.29-9.31,10.64-18.6,15.51-28.13c3.26-6.39,5.74-13.18,7.28-20.24c0.2-0.93,0.3-1.9,0.29-2.85c-0.05-3.09-2.02-4.59-5.1-4.03
		c-2.18,0.39-3.75,1.74-5.25,3.18c-4,3.85-7.17,8.39-10.3,12.92c-9.82,14.21-19.49,28.52-29.39,42.67
		c-10.4,14.87-20.86,29.72-31.55,44.38c-9.66,13.24-19.54,26.32-29.58,39.27c-6.18,7.97-13.1,15.32-21.11,21.54
		c-8.4,6.54-17.94,10.42-28.47,11.7c-3.14,0.38-6.43,0.31-9.55-0.17c-8.68-1.34-14.28-6.96-17.86-14.49
		c-3.07-6.46-4.55-13.47-4.59-20.67c-0.04-6.11,0.99-12.12,3-17.88c2.58-7.39,5.34-14.71,8.22-21.99
		c5.88-14.85,11.89-29.66,17.87-44.47c1.98-4.89,4.05-9.74,6.07-14.61c0.29-0.7,0.5-1.44,0.75-2.16c-0.14-0.1-0.28-0.19-0.42-0.29
		c-1.25,1.18-2.6,2.28-3.74,3.57c-8.6,9.69-17.33,19.27-25.69,29.15c-12.14,14.34-23.89,29.02-36.04,43.36
		c-10.71,12.64-22.01,24.73-34.51,35.65c-8.33,7.28-17.16,13.89-27.2,18.69c-6.55,3.13-13.36,5.28-20.74,5.16
		c-8.32-0.14-15.7-2.63-21.73-8.57c-0.17-0.16-0.38-0.28-0.53-0.38c-4.03,1.66-7.98,3.37-11.98,4.93
		c-9.33,3.65-19.08,4.46-28.98,4.15c-7.4-0.24-14.61-1.51-21.45-4.47c-6.13-2.65-11.35-6.52-15.58-11.69
		c-3.79-4.64-5.8-10.06-6.88-15.88c-1.53-8.2-1.02-16.39,0.24-24.56c1.24-8.07,3.16-15.99,5.98-23.65
		c1.49-4.04,3.31-7.96,5.16-11.85c7.15-15.01,14.55-29.92,23.3-44.07c11.93-19.31,26.91-35.93,45.19-49.48
		c0.61-0.46,1.2-0.94,1.73-1.6c-21.09,5.09-42.28,8.63-64.34,6.47c0.21,1.5,0.41,2.8,0.57,4.1c0.82,6.59,0.01,13.1-1.22,19.55
		c-3.01,15.75-9.22,30.19-18.1,43.52c-10.72,16.1-21.29,32.32-32.1,48.36c-9.57,14.19-19.61,28.05-30.79,41.04
		c-5.22,6.07-10.76,11.82-16.98,16.91c-6.32,5.17-13.41,8.37-21.61,8.73c-7.77,0.34-14.76-1.72-20.21-7.54
		c-1.33-1.42-2.19-3.29-3.16-5.02c-0.49-0.87-0.35-1.83,0.16-2.75c4.78-8.62,8.22-17.84,11.94-26.93
		c3.05-7.47,5.91-15.02,8.82-22.54c3.43-8.83,5.49-18.03,6.86-27.36c1.03-7.03,1.77-14.1,2.4-21.17c0.41-4.61,0.42-9.26,0.58-13.89
		c0.02-0.71-0.03-1.44-0.19-2.14c-0.45-1.99-1.46-2.83-3.52-2.93c-3.12-0.16-5.93,0.77-8.02,3.08c-1.82,2-3.56,4.14-4.93,6.46
		c-11.05,18.7-24.14,35.98-37.18,53.28c-9.29,12.32-18.77,24.51-28.37,36.59c-6.08,7.64-12.74,14.78-20.39,20.93
		c-7.18,5.78-15.04,10.24-23.97,12.73c-7.58,2.12-15.27,2.34-23.05,1.55c-5.11-0.52-10.16-1.32-14.92-3.26
		c-2.42-0.99-4.75-2.29-6.93-3.73c-1.29-0.86-2.37-2.16-3.25-3.46c-2.08-3.06-1.8-6.04,0.71-8.74c1.47-1.58,3.02-3.09,4.6-4.56
		c8.57-7.98,16.51-16.51,23.34-26.04c8.73-12.19,16.13-25.16,22.71-38.61c7.07-14.44,13.3-29.25,18.42-44.48
		c3.74-11.12,6.96-22.41,10.4-33.63c0.18-0.6,0.25-1.23,0.12-2.01c-0.88,1.08-1.79,2.14-2.64,3.25
		c-13.74,17.88-27.41,35.81-41.23,53.63c-7.94,10.23-15.68,20.67-24.29,30.32c-11.48,12.88-22.51,26.21-35.06,38.12
		c-9.12,8.65-18.42,17.08-28.81,24.2c-9.27,6.36-19,11.79-29.95,14.79c-7.21,1.98-14.51,2.49-21.83,0.99
		c-2.78-0.57-5.55-1.61-8.06-2.92c-5.47-2.87-7.75-8.43-7.19-14.54c0.33-3.64,1.73-6.96,2.87-10.36
		c7.33-21.8,14.55-43.63,22.04-65.37c2.55-7.39,5.75-14.55,8.73-21.79c4.92-11.97,9.89-23.92,14.84-35.88
		c1.44-3.47,2.99-6.89,4.27-10.42c1.67-4.61,2.74-9.36,2.29-14.32c-0.07-0.79-0.2-1.59-0.46-2.33c-0.72-2.05-1.74-2.74-3.95-2.81
		c-1.98-0.07-3.78,0.53-5.5,1.44c-3.38,1.8-6.23,4.28-8.41,7.37c-2.48,3.51-4.85,7.15-6.88,10.94
		c-9.21,17.19-18.15,34.52-27.45,51.67c-9.53,17.57-19.22,35.04-29.1,52.41c-5.45,9.58-11.29,18.95-17.25,28.23
		c-4.59,7.14-9.85,13.82-16.4,19.33c-6.7,5.63-14.41,9.31-23.1,10.34c-9.2,1.1-17.21-1.44-23.33-8.89
		c-4.69-5.71-7.62-12.2-8.81-19.41c-0.76-4.59-0.27-9.24,0.32-13.86c1.53-11.85,4.69-23.28,8.35-34.63
		c3.69-11.47,6.79-23.13,10.23-34.68c6.02-20.2,11.97-40.43,18.21-60.56c8.6-27.77,17.86-55.32,27.52-82.74
		c4.27-12.13,8.65-24.22,12.97-36.33c1.34-3.76,2.63-7.54,3.93-11.31c0.18-0.51,0.29-1.04,0.53-1.89c-0.75,0.3-1.24,0.44-1.69,0.68
		c-20.67,11.37-41.85,21.72-63.42,31.25c-16.07,7.1-32.28,13.91-48.56,20.52c-18.87,7.67-38.08,14.45-57.53,20.53
		c-15.55,4.86-31.29,9.07-47.23,12.44c-2.11,0.45-4.22,0.84-6.33,1.27c-0.05,0.01-0.08,0.11-0.22,0.3c0.23,0.25,0.45,0.56,0.73,0.8
		c8.96,7.26,15.8,16.23,21.33,26.29c9.86,17.93,19.79,35.82,29.64,53.75c8.89,16.18,17.68,32.42,26.57,48.6
		c10.54,19.2,20.99,38.45,31.79,57.5c5.04,8.89,10.66,17.47,16.25,26.03c10.09,15.47,20.36,30.82,30.55,46.22
		c3.66,5.53,7.28,11.1,11.03,16.56c1.4,2.03,3.14,3.83,4.7,5.75c0.9,1.12,1.88,2.2,2.61,3.42c2.9,4.83,2.49,9.67-1.15,13.99
		c-2.77,3.28-6.3,5.41-10.47,6.38c-2.01,0.47-4.1,0.64-6.15,0.97c-0.79,0.13-1.56,0.34-2.34,0.51
		C477.92,799.68,473.44,799.68,468.96,799.68z M1652.73,686.98c0.63-3.39,1.03-6.4,1.78-9.32c1.99-7.77,5.89-14.65,10.36-21.21
		c8.49-12.43,18.77-23.26,30.24-32.94c6.22-5.26,12.84-10.04,19.21-15.13c14.95-11.94,27.57-25.94,37.13-42.58
		c5.25-9.13,5.49-18.52,1.13-28.02c-2.41-5.26-6.08-9.51-11.59-11.57c-9.35-3.5-18.96-4.26-28.73-1.83
		c-8.85,2.2-16.88,6.29-24.71,10.82c-9.31,5.38-17.15,12.52-24.28,20.48c-2.76,3.09-5.49,6.26-7.83,9.67
		c-5.84,8.49-11.41,17.17-17.16,25.72c-4.06,6.02-8.67,11.64-11.92,18.23c-5.58,11.33-11.07,22.68-15.17,34.65
		c-2.41,7.06-3.55,14.31-2.15,21.71c1.92,10.17,7.44,17.66,17.4,21.11C1635.17,689.78,1644.08,688.95,1652.73,686.98z
		 M1052.13,682.91c0.14-4.18,0.91-8.15,2.26-12.03c2.98-8.56,7.7-16.14,13.14-23.29c11.03-14.49,24.14-26.86,38.8-37.6
		c17.56-12.85,32.43-28.16,43.59-46.97c5.17-8.71,6.06-17.74,2.49-27.12c-2.52-6.64-6.88-11.74-13.84-14.03
		c-10.31-3.39-20.73-3.7-31.07-0.19c-16.43,5.56-30.64,14.61-42.55,27.28c-12.73,13.53-23.37,28.61-32.86,44.48
		c-8.05,13.46-14.67,27.66-20.33,42.3c-2.4,6.21-3.67,12.54-3.35,19.19c0.51,10.54,4.98,18.71,14.4,23.82
		c9.01,4.88,18.74,5.43,28.69,4.46C1051.64,683.21,1051.78,683.09,1052.13,682.91z M966.52,506.33c0.38-2.63,0.12-4.97-1.02-7.15
		c-1.44-2.72-5.27-3.37-7.59-1.33c-0.98,0.86-1.36,1.91-0.93,3.22c0.58,1.76,1.66,3.09,3.31,3.9
		C962.17,505.9,964.15,506.39,966.52,506.33z M804.37,499.72c3.26-1.69,5.09-3.72,5.68-6.06c0.64-2.52-0.75-5.06-2.95-5.4
		c-3.77-0.58-6.5,2.37-5.33,5.97C802.37,496.09,803.44,497.79,804.37,499.72z M614.26,341.6c3.64-2.06,6.93-4.42,9.7-7.42
		c0.59-0.63,1.08-1.39,1.45-2.17c0.69-1.44,0.1-2.71-1.45-3.13c-1.68-0.46-3.17-0.03-4.36,1.25
		C616.63,333.37,614.94,337.23,614.26,341.6z"/>
	<path d="M973.33,778.9c1.83,0,3.26-0.01,4.68,0c0.64,0.01,1.29-0.01,1.91,0.1c1,0.17,1.53,0.84,1.56,1.83
		c0.02,0.9-0.49,1.49-1.32,1.8c-0.22,0.08-0.46,0.16-0.69,0.16c-3.33,0.01-6.67,0.01-10.22,0.01c0-2.53,0-4.81,0-7.51
		c-0.85,0.83-1.42,1.32-1.92,1.88c-10.15,11.45-27.77,9.16-34.66-4.51c-4.73-9.39-2.97-20.76,4.32-27.88
		c7.71-7.53,19.7-7.95,27.88-0.95c1.39,1.19,2.68,2.48,4.26,3.96c0.13-7.48,0.04-14.82,0.07-22.44c-1.51,0-2.77,0.01-4.03,0
		c-0.8-0.01-1.6,0-2.39-0.1c-1.11-0.15-1.72-0.86-1.71-1.96c0.01-1.11,0.68-1.88,1.77-1.9c3.42-0.07,6.83-0.03,10.48-0.03
		C973.33,740.54,973.33,759.53,973.33,778.9z M934.14,762.21c-0.12,2.09,0.37,4.59,1.39,6.97c4.37,10.15,15.52,14.26,24.57,8.92
		c11.15-6.58,12.35-22.92,2.33-31.14c-6.55-5.38-15.31-5.33-21.74,0.18C936.24,750.94,934.09,755.83,934.14,762.21z"/>
	<path d="M585.68,778.91c1.84,0,3.27-0.04,4.7,0.01c1.67,0.06,2.47,0.75,2.47,1.98c0,1.2-0.84,2.01-2.47,2.03
		c-4.48,0.06-8.96,0.03-13.44,0.01c-0.39,0-0.81-0.06-1.18-0.19c-0.96-0.32-1.38-1.03-1.32-2.03c0.06-1.04,0.62-1.64,1.63-1.74
		c0.87-0.09,1.76-0.07,2.64-0.08c0.86-0.01,1.72,0,2.74,0c0-17.91,0-35.54,0-53.44c-1.36-0.04-2.69-0.06-4.01-0.11
		c-0.88-0.03-1.77-0.03-2.62-0.2c-0.87-0.17-1.34-0.8-1.34-1.74c0-0.99,0.39-1.7,1.38-1.99c0.23-0.07,0.47-0.11,0.71-0.11
		c3.27-0.01,6.53,0,10.03,0c0,8.21,0,16.25,0,24.93c0.99-0.86,1.57-1.31,2.09-1.83c3.25-3.2,7.1-5.18,11.67-5.54
		c9.02-0.71,15.53,3.94,17.19,12.12c0.19,0.93,0.2,1.9,0.2,2.86c0.02,7.36,0.01,14.72,0.01,22.08c0,0.87,0,1.74,0,2.96
		c1.2,0,2.21-0.01,3.23,0c0.72,0.01,1.44-0.01,2.16,0.06c1.11,0.11,1.75,0.76,1.78,1.88c0.03,1.13-0.61,1.79-1.68,1.99
		c-0.54,0.11-1.11,0.11-1.67,0.12c-3.92,0.01-7.84,0.01-11.76,0c-0.48,0-0.97,0.01-1.44-0.07c-1.22-0.21-2.01-1.04-1.99-2.04
		c0.02-1.03,0.79-1.8,2.07-1.9c1.11-0.09,2.24-0.03,3.36-0.05c0.47-0.01,0.94-0.06,1.55-0.1c0.07-0.71,0.19-1.32,0.19-1.93
		c0.01-7.76-0.09-15.52,0.04-23.28c0.09-5.38-3.91-9.29-8.14-10.18c-5.04-1.05-9.56-0.24-13.28,3.49c-1.86,1.86-3.58,3.86-5.36,5.8
		c-0.04,2.23-0.12,4.47-0.13,6.7c-0.02,5.6-0.01,11.2-0.01,16.8C585.68,777,585.68,777.78,585.68,778.91z"/>
	<path d="M728.67,758.03c0-2.75,0.19-5.16-0.05-7.52c-0.32-3.17-2.47-5.14-5.26-6.31c-3.33-1.4-6.86-1.58-10.36-0.88
		c-3.05,0.61-6.04,1.5-9.05,2.28c-0.77,0.2-1.51,0.53-2.29,0.68c-1.08,0.22-1.94-0.22-2.26-1.28c-0.29-0.97-0.18-1.93,0.91-2.44
		c0.58-0.27,1.17-0.53,1.77-0.72c4.42-1.43,8.91-2.62,13.54-2.97c3.61-0.27,7.2,0.26,10.42,2.1c4.42,2.52,6.94,6.18,6.89,11.47
		c-0.08,7.83-0.02,15.67-0.02,23.51c0,0.87,0,1.74,0,2.95c1.05,0,1.9-0.01,2.75,0c1.2,0.01,2.4-0.03,3.59,0.07
		c1.1,0.09,1.75,0.78,1.78,1.89c0.02,1.12-0.62,1.81-1.7,1.97c-0.78,0.12-1.59,0.11-2.39,0.12c-2.63,0.01-5.26,0-8.09,0
		c-0.09-1.86-0.17-3.56-0.27-5.57c-0.96,0.67-1.67,1.15-2.35,1.64c-5.74,4.14-12.11,6.04-19.18,5.32
		c-4.89-0.49-8.89-2.57-11.31-7.03c-2.37-4.36-1.89-10.74,2.75-15.15c3.4-3.23,7.54-4.65,12.08-5.27
		c5.29-0.73,10.51-0.05,15.72,0.72C726.99,757.73,727.69,757.87,728.67,758.03z M728.72,762.35c-6.03-1.53-11.84-2.07-17.77-1.17
		c-3.72,0.56-7.11,1.79-9.84,4.48c-4.26,4.21-3.28,10.77,2.13,13.36c1.67,0.8,3.65,1.22,5.52,1.33c7.71,0.44,13.85-3.03,19.2-8.21
		c0.4-0.39,0.71-1.08,0.73-1.65C728.76,767.87,728.72,765.24,728.72,762.35z"/>
	<path d="M1442,778.9c1.81,0,3.24-0.01,4.67,0c0.64,0.01,1.28,0,1.91,0.1c0.88,0.14,1.42,0.69,1.54,1.6c0.13,1-0.33,1.69-1.22,2.11
		c-0.21,0.1-0.46,0.17-0.69,0.17c-3.34,0.01-6.67,0.01-10.19,0.01c0-1.84,0-3.49,0-5.25c-1.18-0.03-1.72,0.73-2.38,1.21
		c-5.72,4.13-12.04,6.16-19.13,5.54c-3.09-0.27-5.94-1.17-8.4-3.14c-5.15-4.12-6.21-11.37-2.42-16.77c3.42-4.88,8.42-6.84,14.1-7.59
		c5.3-0.71,10.51-0.02,15.72,0.77c0.69,0.11,1.39,0.19,2.34,0.33c0.13-2.94,0.46-5.73-0.28-8.43c-0.77-2.82-2.87-4.55-5.55-5.54
		c-4.05-1.49-8.17-1.24-12.27-0.25c-2.48,0.6-4.91,1.39-7.37,2.07c-0.69,0.19-1.39,0.41-2.09,0.47c-0.91,0.07-1.51-0.5-1.78-1.32
		c-0.25-0.8-0.23-1.62,0.55-2.16c0.45-0.31,0.96-0.58,1.48-0.76c4.71-1.58,9.5-2.97,14.45-3.19c5.32-0.24,10.34,0.88,14.09,5.21
		c1.97,2.27,2.97,4.84,2.95,7.88c-0.05,7.99-0.02,15.99-0.02,23.98C1442,776.81,1442,777.67,1442,778.9z M1437.97,762.4
		c-6.02-1.57-11.82-2.11-17.75-1.27c-3.64,0.52-6.95,1.76-9.71,4.23c-4.27,3.82-3.88,9.84,0.83,13.12c1.97,1.37,4.24,1.81,6.57,1.9
		c7.8,0.32,13.98-3.16,19.36-8.42c0.4-0.39,0.66-1.1,0.68-1.67C1438.01,767.75,1437.97,765.21,1437.97,762.4z"/>
	<path d="M1541.88,778.9c3.28,0,6.31,0,9.34,0c2.8,0,5.6-0.04,8.39,0.02c1.76,0.03,2.43,0.64,2.42,1.96
		c-0.01,1.29-0.73,1.95-2.41,2.05c-1.12,0.07-2.24,0.02-3.36,0.02c-9.03,0-18.07,0-27.1,0c-0.72,0-1.45,0.04-2.15-0.07
		c-1.23-0.19-1.98-1.04-1.93-2.07c0.04-1.04,0.8-1.83,2.08-1.87c2.4-0.08,4.8-0.04,7.19-0.05c0.94,0,1.89,0,3,0
		c0-11.52,0-22.83,0-34.46c-1.98,0-3.94,0-5.91,0c-1.04,0-2.08,0.05-3.12-0.04c-1.35-0.12-1.96-0.75-2.03-1.91
		c-0.08-1.2,0.42-1.88,1.78-2.12c0.93-0.16,1.91-0.11,2.87-0.12c1.92-0.02,3.84-0.02,5.76-0.04c0.15,0,0.3-0.07,0.64-0.15
		c0.06-0.54,0.17-1.15,0.18-1.75c0.04-1.76-0.12-3.54,0.09-5.27c0.74-6.2,5.74-10.98,12.21-11.58c5.52-0.51,11.01,0.06,16.45,1.02
		c0.39,0.07,0.9,0.14,1.11,0.4c0.45,0.57,1,1.26,1.04,1.92c0.04,0.83-0.65,1.5-1.56,1.5c-1.35,0-2.71-0.13-4.06-0.22
		c-3.5-0.23-7-0.62-10.5-0.65c-1.71-0.02-3.54,0.35-5.11,1.02c-3.54,1.51-5.48,4.27-5.46,8.24c0.01,1.74,0,3.49,0,5.41
		c0.96,0.05,1.73,0.13,2.5,0.13c5.12,0.01,10.23,0,15.35,0.01c0.71,0,1.44,0.05,2.13,0.2c1.07,0.24,1.66,0.95,1.59,2.07
		c-0.08,1.13-0.83,1.7-1.87,1.86c-0.63,0.1-1.28,0.05-1.91,0.05c-5.04,0-10.07,0-15.11,0c-0.78,0-1.56,0-2.51,0
		C1541.88,755.96,1541.88,767.27,1541.88,778.9z"/>
	<path d="M818.11,778.9c0-11.72,0-22.96,0-34.47c-1.32,0-2.5,0.06-3.68-0.01c-1.53-0.09-2.26-0.73-2.34-1.88
		c-0.09-1.28,0.64-2.15,2.26-2.22c2.54-0.12,5.08-0.03,7.92-0.03c0,1.86,0,3.56,0,5.81c1.09-0.9,1.75-1.41,2.38-1.97
		c3.23-2.93,6.91-4.93,11.32-5.21c7.69-0.49,13.97,2.51,16.57,10.44c0.46,1.4,0.52,2.99,0.53,4.49c0.05,7.36,0.02,14.71,0.02,22.07
		c0,0.87,0,1.73,0,2.86c1.36,0.06,2.52,0.09,3.68,0.16c1.69,0.1,2.46,0.75,2.43,2c-0.03,1.17-0.76,1.96-2.24,1.99
		c-3.92,0.08-7.84,0.07-11.75,0c-0.64-0.01-1.46-0.35-1.89-0.82c-1.08-1.18-0.26-2.94,1.45-3.11c1.32-0.13,2.67-0.03,4.26-0.03
		c0-1.21,0-2.07,0-2.92c0-7.04-0.21-14.08,0.06-21.11c0.29-7.85-5.69-13.24-14.53-11.66c-2.33,0.42-4.4,1.42-6.16,3.02
		c-0.53,0.48-1.08,0.95-1.6,1.45c-4.49,4.33-4.49,4.33-4.49,10.56c0,5.92,0,11.83,0,17.75c0,0.85,0,1.71,0,2.86
		c1.29,0,2.31-0.01,3.32,0c0.72,0.01,1.44,0,2.15,0.08c1.01,0.11,1.6,0.76,1.64,1.75c0.05,1.08-0.48,1.86-1.58,2.08
		c-0.62,0.12-1.27,0.14-1.91,0.14c-3.84,0.01-7.68,0.01-11.51,0c-0.64,0-1.29-0.02-1.9-0.15c-1.12-0.24-1.53-1.03-1.46-2.13
		c0.07-1.06,0.66-1.6,1.66-1.69c0.79-0.07,1.6-0.06,2.4-0.07C816.07,778.89,817,778.9,818.11,778.9z"/>
	<path d="M1206.52,743.85c0.09-0.68,0.12-1.24,0.25-1.77c0.29-1.17,1.22-1.96,2.18-1.77c1.06,0.2,1.71,0.88,1.72,1.99
		c0.02,3.6,0.05,7.19-0.02,10.79c-0.03,1.41-0.7,2.01-1.84,2.06c-1.15,0.05-1.83-0.44-2.05-1.88c-0.78-5.13-4.39-7.6-8.75-9.21
		c-3.5-1.29-7.21-1.43-10.88-0.79c-7.99,1.39-13.71,7.86-14.47,16.27c-0.41,4.57,0.2,8.96,2.82,12.85
		c4.28,6.37,10.51,8.58,17.87,7.88c6.05-0.58,11.44-2.85,15.83-7.18c0.17-0.17,0.34-0.34,0.52-0.5c0.79-0.66,1.64-1.01,2.61-0.36
		c0.79,0.53,1.17,1.8,0.52,2.79c-0.68,1.05-1.57,2.02-2.55,2.81c-4.27,3.42-9.14,5.57-14.55,6.33c-3.64,0.51-7.34,0.59-10.96-0.33
		c-6.97-1.77-12.1-5.91-14.63-12.64c-3.39-9.04-2.35-17.62,4.08-25.12c3.46-4.03,7.98-6.28,13.27-6.97
		c6.7-0.87,12.86,0.41,18.33,4.51C1205.94,743.71,1206.11,743.72,1206.52,743.85z"/>
	<path d="M1303.28,750.35c0.85-0.67,1.45-1.14,2.05-1.62c2.43-1.95,4.8-3.98,7.29-5.85c2.33-1.74,4.95-2.81,7.84-3.4
		c4.71-0.96,9.15,2.24,11.06,4.83c0.77,1.03,0.69,2.05-0.05,2.83c-0.82,0.86-1.86,0.88-2.99-0.02c-0.75-0.6-1.4-1.32-2.12-1.95
		c-1.83-1.59-3.94-2.27-6.21-1.26c-2.25,1-4.55,2.03-6.5,3.48c-3.26,2.43-6.27,5.21-9.39,7.83c-0.7,0.59-1.14,1.23-1.13,2.23
		c0.04,6.8,0.03,13.6,0.04,20.4c0,0.23,0.1,0.46,0.22,1.04c0.8,0,1.65,0,2.5,0c4.8,0,9.6,0,14.4,0c0.64,0,1.29-0.01,1.91,0.1
		c0.99,0.17,1.54,0.8,1.56,1.82c0.02,1.02-0.5,1.69-1.44,1.95c-0.61,0.16-1.27,0.17-1.9,0.17c-10.16,0.01-20.32,0.01-30.48,0
		c-0.56,0-1.13-0.01-1.67-0.11c-1.08-0.2-1.76-0.91-1.72-1.98c0.04-1.05,0.68-1.8,1.8-1.89c0.87-0.07,1.76-0.06,2.64-0.06
		c2.54-0.01,5.09,0,7.79,0c0-11.54,0-22.85,0-34.46c-2.17,0-4.3,0.02-6.43-0.01c-0.71-0.01-1.54,0.08-2.1-0.25
		c-0.6-0.35-1.15-1.08-1.34-1.75c-0.24-0.84,0.35-1.52,1.18-1.85c0.44-0.17,0.92-0.32,1.38-0.32c3.75-0.03,7.51-0.01,11.51-0.01
		C1303.39,743.56,1302.95,746.8,1303.28,750.35z"/>
	<path d="M1654.22,740.24c1.2,0,2.07,0,2.94,0c5.92,0,11.83-0.01,17.75,0.01c0.86,0,1.82,0,2.56,0.36c0.61,0.29,1.25,1.07,1.36,1.73
		c0.16,0.91-0.51,1.69-1.45,1.94c-0.68,0.18-1.42,0.16-2.14,0.16c-6,0.01-11.99,0.01-17.99,0.01c-0.87,0-1.74,0-2.75,0
		c-0.11,0.66-0.27,1.18-0.28,1.7c-0.02,8.47-0.05,16.95,0,25.42c0.02,4.38,2.68,7.44,7.08,8.42c4.1,0.91,8.14,0.36,12.08-0.71
		c2.75-0.75,5.38-1.95,8.07-2.96c0.22-0.08,0.43-0.21,0.65-0.31c1.03-0.52,1.91-0.26,2.49,0.68c0.56,0.91,0.48,1.9-0.41,2.58
		c-0.88,0.67-1.83,1.3-2.84,1.73c-5.8,2.51-11.83,3.93-18.18,3.36c-1.88-0.17-3.82-0.58-5.55-1.31c-4.79-2-7.44-5.6-7.44-10.94
		c0-8.23,0-16.47,0-24.7c0-0.87,0-1.73,0-2.85c-1.34-0.04-2.51-0.09-3.67-0.11c-1.6-0.03-3.2,0.03-4.79-0.1
		c-0.94-0.08-1.59-0.67-1.66-1.73c-0.07-1.1,0.31-1.9,1.45-2.13c0.7-0.14,1.42-0.21,2.13-0.22c2.07-0.03,4.14-0.01,6.35-0.01
		c0.07-0.78,0.18-1.4,0.18-2.01c0.02-3.2,0-6.4,0.02-9.59c0-0.64,0.01-1.29,0.15-1.9c0.21-0.85,0.81-1.36,1.72-1.39
		c1-0.04,1.75,0.41,1.99,1.37c0.19,0.76,0.17,1.58,0.18,2.38C1654.23,732.68,1654.22,736.27,1654.22,740.24z"/>
	<path d="M1073.61,778.9c1.36,0,2.3,0,3.25,0c4,0,8-0.01,12,0.01c0.64,0,1.28,0.02,1.91,0.13c0.92,0.16,1.33,0.79,1.36,1.7
		c0.03,0.87-0.17,1.67-1.08,1.92c-0.83,0.22-1.73,0.29-2.6,0.29c-11.28,0.02-22.55,0.01-33.83,0.01c-0.72,0-1.45,0-2.14-0.15
		c-1.01-0.22-1.7-1.19-1.54-2.11c0.16-0.94,0.67-1.64,1.71-1.72c0.64-0.05,1.28-0.06,1.92-0.06c4.08-0.01,8.16,0,12.24-0.01
		c0.79,0,1.57-0.07,2.51-0.11c0-11.43,0-22.73,0-34.35c-1.7,0-3.36,0-5.01,0c-2.08,0-4.16,0.02-6.24-0.02
		c-0.62-0.01-1.36-0.04-1.82-0.38c-0.51-0.37-1.05-1.1-1.05-1.67c0-0.58,0.54-1.3,1.05-1.68c0.46-0.34,1.2-0.42,1.82-0.43
		c4.88-0.03,9.76-0.01,14.63,0.01c0.22,0,0.45,0.12,0.9,0.25C1073.61,753.17,1073.61,765.85,1073.61,778.9z"/>
	<path d="M1067.57,719.23c1.94,0,3.66,0,5.52,0c0.68,1.68,0.24,3.44,0.32,5.15c0.08,1.66,0.02,3.33,0.02,5.18c-2.02,0-3.87,0-5.85,0
		C1067.57,726.14,1067.57,722.81,1067.57,719.23z"/>
</g>
</svg>
